<?xml version="1.0" encoding="UTF-8" standalone="no"?>
<!-- Created with Inkscape (http://www.inkscape.org/) -->

<svg
   version="1.1"
   id="svg2"
   width="204.647"
   height="150.884"
   viewBox="0 0 204.647 150.884"
   sodipodi:docname="images2.svg"
   inkscape:export-filename="/home/shenoisz/myprojects/sources/QT-PROJECTS/terminal-welcome-studio/images/images2.png"
   inkscape:export-xdpi="96"
   inkscape:export-ydpi="96"
   inkscape:version="1.1.1 (3bf5ae0, 2021-09-20)"
   xmlns:inkscape="http://www.inkscape.org/namespaces/inkscape"
   xmlns:sodipodi="http://sodipodi.sourceforge.net/DTD/sodipodi-0.dtd"
   xmlns="http://www.w3.org/2000/svg"
   xmlns:svg="http://www.w3.org/2000/svg">
  <defs
     id="defs6" />
  <sodipodi:namedview
     id="namedview4"
     pagecolor="#505050"
     bordercolor="#eeeeee"
     borderopacity="1"
     inkscape:pageshadow="0"
     inkscape:pageopacity="0"
     inkscape:pagecheckerboard="0"
     showgrid="false"
     inkscape:zoom="2"
     inkscape:cx="199"
     inkscape:cy="62.5"
     inkscape:window-width="1366"
     inkscape:window-height="708"
     inkscape:window-x="0"
     inkscape:window-y="22"
     inkscape:window-maximized="1"
     inkscape:current-layer="g8"
     width="204.647px" />
  <g
     inkscape:groupmode="layer"
     inkscape:label="Image"
     id="g8">
    <g
       id="g1128">
      <rect
         style="fill:#ffffff;stroke:none;stroke-width:1.84627;stroke-miterlimit:4;stroke-dasharray:none;stroke-opacity:1"
         id="rect8322"
         width="204.64738"
         height="150.88435"
         x="0.066785127"
         y="0.49713922" />
      <rect
         style="fill:#ffffff;stroke:none;stroke-width:0.430513;stroke-miterlimit:4;stroke-dasharray:none;stroke-opacity:1"
         id="rect8134"
         width="179.98137"
         height="6.1422558"
         x="17.943123"
         y="134.31879" />
      <path
         style="fill:#07ffff;stroke:none;stroke-width:1;stroke-miterlimit:4;stroke-dasharray:none;stroke-opacity:1;fill-opacity:1"
         id="rect1757"
         width="179.36331"
         height="125.65096"
         x="18.298544"
         y="12.687566"
         sodipodi:type="rect"
         clip-path="none"
         d="M 18.298544,12.687566 H 197.66186 V 138.33853 H 18.298544 Z" />
      <path
         style="fill:#ffffff;stroke:none;stroke-width:0.211997px;stroke-linecap:butt;stroke-linejoin:miter;stroke-opacity:1"
         d="M 31.66165,47.711199 48.009396,44.802518 41.106458,90.362207 Z"
         id="path2041" />
      <path
         style="fill:#ffffff;stroke:none;stroke-width:0.217174px;stroke-linecap:butt;stroke-linejoin:miter;stroke-opacity:1"
         d="m 162.27498,24.574566 2.08372,8.978545 -28.4435,-3.844146 z"
         id="path2192" />
      <path
         style="fill:#ffffff;stroke:none;stroke-width:0.21661px;stroke-linecap:butt;stroke-linejoin:miter;stroke-opacity:1"
         d="M 17.646851,11.518247 167.47607,11.533897 95.737335,23.95484 58.837294,19.2623 c -5.23066,-0.54059 -6.975022,2.301487 -7.83039,4.260532 l -1.46156,8.876491 -27.522246,4.877024 c -3.03714,1.733512 -3.751827,3.334906 -4.360291,5.070302 z"
         id="path2519"
         sodipodi:nodetypes="ccccccccc" />
      <path
         style="fill:#ffffff;stroke:none;stroke-width:0.211997px;stroke-linecap:butt;stroke-linejoin:miter;stroke-opacity:1"
         d="m 46.844588,117.16214 31.843264,4.25478 -29.494957,5.31491 z"
         id="path3449"
         sodipodi:nodetypes="cccc" />
      <path
         style="fill:#ffffff;stroke:none;stroke-width:0.216851px;stroke-linecap:butt;stroke-linejoin:miter;stroke-opacity:1"
         d="m 167.47607,11.533901 30.44145,-0.01562 -0.17933,32.377326 c -0.16445,-2.360839 -0.56622,-5.976024 -5.5722,-7.176249 l -14.9717,-2.171322 c -1.24761,-6.385555 -2.64326,-13.063432 -4.1618,-19.983947 -1.27278,-1.50518 -3.13023,-2.510705 -5.55642,-3.030185 z"
         id="path3845"
         sodipodi:nodetypes="ccccccc" />
      <path
         style="fill:#ffffff;stroke:none;stroke-width:0.214393px;stroke-linecap:butt;stroke-linejoin:miter;stroke-opacity:1"
         d="m 197.74262,43.895604 0.18186,96.227946 -11.27761,-24.31096 c 2.82247,-0.98978 5.48566,-0.269 6.8313,-7.31803 -1.17593,-5.61379 -2.70269,-10.870244 -3.49112,-16.862345 z"
         id="path4699"
         sodipodi:nodetypes="cccccc" />
      <path
         style="fill:#ffffff;stroke:none;stroke-width:0.206993px;stroke-linecap:butt;stroke-linejoin:miter;stroke-opacity:1"
         d="m 186.64687,115.81259 c 4.82785,7.58011 7.98577,15.26306 11.72356,22.9103 l -154.99463,0.0103 79.71602,-12.578 52.52202,6.20968 c 4.24219,0.3362 7.97052,-0.12549 9.29497,-5.00673 z"
         id="path5135"
         sodipodi:nodetypes="ccccccc" />
      <path
         style="fill:#ffffff;stroke:none;stroke-width:0.21142px;stroke-linecap:butt;stroke-linejoin:miter;stroke-opacity:1"
         d="m 17.93137,44.595695 c 0.327278,32.80419 0.271389,63.576285 0.117481,94.107905 l 26.38565,0.0107 c -2.864477,-0.8007 -5.651699,-1.75189 -6.894426,-5.71189 z"
         id="path5341"
         sodipodi:nodetypes="ccccc" />
      <path
         style="fill:#ffffff;stroke:none;stroke-width:0.211997px;stroke-linecap:butt;stroke-linejoin:miter;stroke-opacity:1"
         d="m 58.37671,100.55757 22.922509,-20.722651 23.029041,11.265403 27.15847,-27.569853 14.18661,24.528541 12.08936,-10.564555 6.86146,34.716595 8.44558,7.37805 L 184.69129,45.655281 62.702748,30.76889 50.969487,104.83357 Z"
         id="path6140"
         sodipodi:nodetypes="cccccccccccc" />
      <ellipse
         style="fill:#07ffff;stroke:none;stroke-width:0.211997;stroke-miterlimit:4;stroke-dasharray:none;stroke-opacity:1;fill-opacity:1"
         id="path2350"
         cx="89.010406"
         cy="54.854706"
         rx="14.389008"
         ry="12.907978" />
      <path
         style="fill:#ffffff;stroke:none;stroke-width:0.211997px;stroke-linecap:butt;stroke-linejoin:miter;stroke-opacity:1"
         d="m 50.969487,104.83357 v 0 l 122.097213,15.75972 0.003,-1.00419 c -2.68905,-2.50524 -5.3291,-5.02831 -8.44558,-7.37805 l -0.0983,0.9603 -105.988776,-12.70947 -1.753867,0.41745 z"
         id="path6291"
         sodipodi:nodetypes="ccccccccc" />
      <path
         style="fill:#ffffff;stroke:none;stroke-width:1.69117px;stroke-linecap:butt;stroke-linejoin:miter;stroke-opacity:1"
         d="M 17.93137,44.595695 37.540075,133.00244 39.350323,149.2549 11.00003,148.65878 7.7860952,3.2966367 21.837175,3.3638636 16.868076,41.877735 Z"
         id="path9431" />
      <path
         style="fill:#ffffff;stroke:none;stroke-width:1.69117px;stroke-linecap:butt;stroke-linejoin:miter;stroke-opacity:1"
         d="m 193.54399,1.7231413 -1.378,34.9962137 c 7.13075,1.644891 5.90371,5.573316 5.30987,9.328737 l -7.48881,45.584123 3.49112,16.862345 c 1.66178,7.97017 -0.63099,8.99321 -4.76011,6.79023 l -9.80511,35.26644 24.16403,-0.63567 1.6372,-149.41842073 z"
         id="path9634"
         sodipodi:nodetypes="cccccccccc" />
      <path
         style="fill:#ffffff;stroke:none;stroke-width:1.69117px;stroke-linecap:butt;stroke-linejoin:miter;stroke-opacity:1"
         d="m 44.434501,138.71433 78.657319,-12.55918 53.6679,6.13675 21.16476,2.02689 5.1525,15.59677 -203.0101945,1.46593 z"
         id="path10320" />
    </g>
  </g>
</svg>
