<?xml version="1.0" encoding="UTF-8" standalone="no"?>
<!-- Created with Inkscape (http://www.inkscape.org/) -->

<svg
   version="1.1"
   id="svg2"
   width="204.647"
   height="150.884"
   viewBox="0 0 204.647 150.884"
   sodipodi:docname="images.svg"
   inkscape:export-filename="/home/shenoisz/myprojects/sources/QT-PROJECTS/terminal-welcome-studio/images/images2.png"
   inkscape:export-xdpi="96"
   inkscape:export-ydpi="96"
   inkscape:version="1.1.1 (3bf5ae0, 2021-09-20)"
   xmlns:inkscape="http://www.inkscape.org/namespaces/inkscape"
   xmlns:sodipodi="http://sodipodi.sourceforge.net/DTD/sodipodi-0.dtd"
   xmlns="http://www.w3.org/2000/svg"
   xmlns:svg="http://www.w3.org/2000/svg">
  <defs
     id="defs6" />
  <sodipodi:namedview
     id="namedview4"
     pagecolor="#505050"
     bordercolor="#eeeeee"
     borderopacity="1"
     inkscape:pageshadow="0"
     inkscape:pageopacity="0"
     inkscape:pagecheckerboard="0"
     showgrid="false"
     inkscape:zoom="0.70710678"
     inkscape:cx="37.476659"
     inkscape:cy="70.710678"
     inkscape:window-width="1366"
     inkscape:window-height="708"
     inkscape:window-x="0"
     inkscape:window-y="22"
     inkscape:window-maximized="1"
     inkscape:current-layer="g8"
     width="204.647px" />
  <g
     inkscape:groupmode="layer"
     inkscape:label="Image"
     id="g8">
    <g
       id="g10456"
       transform="matrix(1.7855915,0,0,1.6017462,18.971823,12.885535)">
      <g
         id="g10285">
        <rect
           style="fill:#ffffff;stroke:none;stroke-width:1.09171;stroke-miterlimit:4;stroke-dasharray:none;stroke-opacity:1"
           id="rect8322"
           width="114.61042"
           height="94.199913"
           x="-10.587549"
           y="-7.7343063" />
        <rect
           style="fill:#ffffff;stroke:none;stroke-width:0.254565;stroke-miterlimit:4;stroke-dasharray:none;stroke-opacity:1"
           id="rect8134"
           width="100.79649"
           height="3.8347247"
           x="-0.57611173"
           y="75.813042" />
        <path
           style="fill:#4d4d4d;stroke:none;stroke-width:1;stroke-miterlimit:4;stroke-dasharray:none;stroke-opacity:1"
           id="rect1757"
           width="100.45036"
           height="78.446236"
           x="-0.37706187"
           y="-0.12359586"
           sodipodi:type="rect"
           clip-path="none"
           d="M -0.37706187,-0.12359586 H 100.0733 V 78.32264 H -0.37706187 Z" />
        <path
           style="fill:#ffffff;stroke:none;stroke-width:0.125355px;stroke-linecap:butt;stroke-linejoin:miter;stroke-opacity:1"
           d="M 7.1067917,21.742311 16.262159,19.926367 12.396248,48.37013 Z"
           id="path2041" />
        <path
           style="fill:#ffffff;stroke:none;stroke-width:0.128416px;stroke-linecap:butt;stroke-linejoin:miter;stroke-opacity:1"
           d="m 80.255289,7.2976797 1.166958,5.6054733 -15.92945,-2.399972 z"
           id="path2192" />
        <path
           style="fill:#ffffff;stroke:none;stroke-width:0.128083px;stroke-linecap:butt;stroke-linejoin:miter;stroke-opacity:1"
           d="M -0.7420356,-0.85362317 83.168097,-0.84385001 42.991643,6.9107761 22.326199,3.9811358 c -2.929371,-0.3375005 -3.906281,1.436861 -4.38532,2.6599293 l -0.81853,5.5417589 -15.4135176,3.044817 c -1.70091508,1.082264 -2.10116755,2.082044 -2.44193061,3.165484 z"
           id="path2519"
           sodipodi:nodetypes="ccccccccc" />
        <path
           style="fill:#ffffff;stroke:none;stroke-width:0.125355px;stroke-linecap:butt;stroke-linejoin:miter;stroke-opacity:1"
           d="m 15.609822,65.101829 17.833454,2.656335 -16.518312,3.318202 z"
           id="path3449"
           sodipodi:nodetypes="cccc" />
        <path
           style="fill:#ffffff;stroke:none;stroke-width:0.128225px;stroke-linecap:butt;stroke-linejoin:miter;stroke-opacity:1"
           d="m 83.168097,-0.84385001 17.048383,-0.009754 -0.10043,20.21376801 c -0.0921,-1.473916 -0.317105,-3.730943 -3.120645,-4.480266 L 88.610677,13.524301 C 87.911966,9.5376801 87.130345,5.3685572 86.279907,1.0479505 85.5671,0.10823858 84.526856,-0.5195294 83.168097,-0.84385001 Z"
           id="path3845"
           sodipodi:nodetypes="ccccccc" />
        <path
           style="fill:#ffffff;stroke:none;stroke-width:0.126772px;stroke-linecap:butt;stroke-linejoin:miter;stroke-opacity:1"
           d="m 100.11853,19.360164 0.10185,60.076898 -6.315895,-15.177784 c 1.580692,-0.617935 3.072177,-0.167939 3.825789,-4.56878 C 97.071706,56.185703 96.216665,52.904 95.775115,49.16302 Z"
           id="path4699"
           sodipodi:nodetypes="cccccc" />
        <path
           style="fill:#ffffff;stroke:none;stroke-width:0.122396px;stroke-linecap:butt;stroke-linejoin:miter;stroke-opacity:1"
           d="m 93.904485,64.259278 c 2.70378,4.732404 4.472338,9.529014 6.565645,14.30333 l -86.802963,0.0064 44.644041,-7.852678 29.414354,3.876822 c 2.375789,0.209895 4.463799,-0.07835 5.20554,-3.125798 z"
           id="path5135"
           sodipodi:nodetypes="ccccccc" />
        <path
           style="fill:#ffffff;stroke:none;stroke-width:0.125014px;stroke-linecap:butt;stroke-linejoin:miter;stroke-opacity:1"
           d="m -0.58269375,19.797244 c 0.18328842,20.480267 0.15198857,39.69186 0.0657938,58.753316 L 14.26008,78.55726 c -1.604217,-0.499892 -3.165169,-1.093737 -3.861144,-3.56604 z"
           id="path5341"
           sodipodi:nodetypes="ccccc" />
        <path
           style="fill:#ffffff;stroke:none;stroke-width:0.125355px;stroke-linecap:butt;stroke-linejoin:miter;stroke-opacity:1"
           d="m 22.068254,54.735284 12.837488,-12.937536 12.89715,7.033201 15.209789,-17.212373 7.945047,15.313625 6.770508,-6.595648 3.842684,21.674218 4.729848,4.606255 6.508516,-46.158263 -68.318282,-9.293851 -6.571078,46.239961 z"
           id="path6140"
           sodipodi:nodetypes="cccccccccccc" />
        <ellipse
           style="fill:#4d4d4d;stroke:none;stroke-width:0.125355;stroke-miterlimit:4;stroke-dasharray:none;stroke-opacity:1"
           id="path2350"
           cx="39.224304"
           cy="26.202135"
           rx="8.0583982"
           ry="8.058691" />
        <path
           style="fill:#ffffff;stroke:none;stroke-width:0.125355px;stroke-linecap:butt;stroke-linejoin:miter;stroke-opacity:1"
           d="m 17.919924,57.404873 v 0 l 68.379142,9.839087 0.0017,-0.626934 c -1.505968,-1.564069 -2.984497,-3.139268 -4.729848,-4.606255 l -0.05507,0.599534 -59.357795,-7.934761 -0.982233,0.26062 z"
           id="path6291"
           sodipodi:nodetypes="ccccccccc" />
        <path
           style="fill:#ffffff;stroke:none;stroke-width:1px;stroke-linecap:butt;stroke-linejoin:miter;stroke-opacity:1"
           d="M -0.58269375,19.797244 10.398936,74.99122 11.412745,85.137938 -4.464511,84.765764 -6.2644383,-5.9865279 l 7.8691458,0.041971 -2.782887,24.0449279 z"
           id="path9431" />
        <path
           style="fill:#ffffff;stroke:none;stroke-width:1px;stroke-linecap:butt;stroke-linejoin:miter;stroke-opacity:1"
           d="M 97.767138,-6.9688904 96.995405,14.879898 c 3.993495,1.026936 3.306305,3.479525 2.973731,5.824104 l -4.194021,28.459018 1.955159,10.527478 c 0.93066,4.975924 -0.353376,5.614628 -2.665847,4.239266 l -5.491237,22.017496 13.53279,-0.396861 0.91689,-93.2847053 z"
           id="path9634"
           sodipodi:nodetypes="cccccccccc" />
      </g>
      <path
         style="fill:#ffffff;stroke:none;stroke-width:1px;stroke-linecap:butt;stroke-linejoin:miter;stroke-opacity:1"
         d="m 14.26008,78.55726 44.051128,-7.84093 30.056092,3.831286 11.85308,1.265426 2.8856,9.737357 -113.693529,0.915208 z"
         id="path10320" />
    </g>
  </g>
</svg>
